<?xml version="1.0" encoding="utf-8"?>
<!-- Generator: Adobe Illustrator 23.1.0, SVG Export Plug-In . SVG Version: 6.00 Build 0)  -->
<svg version="1.1" id="Слой_1" xmlns="http://www.w3.org/2000/svg" xmlns:xlink="http://www.w3.org/1999/xlink" x="0px" y="0px"
	 viewBox="0 0 220 80" enable-background="new 0 0 220 80" xml:space="preserve">
<path fill-rule="evenodd" clip-rule="evenodd" fill="#DB1E00" d="M34.4,24.6v12.7l11-6.3L34.4,24.6z"/>
<path fill-rule="evenodd" clip-rule="evenodd" fill="#1C91F2" d="M34.4,7.3V20l11-6.4L34.4,7.3z"/>
<path fill-rule="evenodd" clip-rule="evenodd" fill="#34A853" d="M49.4,15.9v12.8l11-6.4L49.4,15.9z"/>
<path fill="#FBBC07" d="M34.4,41.9v12.7l11-6.4L34.4,41.9z"/>
<path fill="#7F2D7F" d="M49.4,33.3V46l11-6.3L49.4,33.3z"/>
<path d="M109,14.3v21.2h-4.8V18.3h-7.6v17.3h-4.8V14.3H109L109,14.3z M113,25.3c0-2-0.1-3.7-0.2-5.1h4.2l0.2,2.1h0.1
	c1.2-1.6,2.9-2.5,5.2-2.5c3.3,0,6.4,3,6.4,7.9c0,5.6-3.6,8.3-7,8.3c-1.8,0-3.3-0.8-4-1.8h-0.1v7.7H113L113,25.3L113,25.3z M117.8,29
	c0,0.4,0.1,0.7,0.1,1c0.3,1.3,1.4,2.3,2.8,2.3c2.1,0,3.3-1.8,3.3-4.4c0-2.5-1.1-4.3-3.3-4.3c-1.3,0-2.6,1-2.8,2.5
	c-0.1,0.3-0.1,0.5-0.1,0.9L117.8,29L117.8,29z M147.1,27.7c0,5.6-4,8.2-8.1,8.2c-4.5,0-7.9-3-7.9-7.9s3.3-8.2,8.3-8.2
	C143.9,19.8,147.1,23,147.1,27.7L147.1,27.7z M135.9,27.9c0,2.6,1.1,4.6,3.1,4.6c1.9,0,3.1-1.8,3.1-4.6c0-2.3-0.9-4.6-3.1-4.6
	C136.8,23.2,135.9,25.6,135.9,27.9z M153.7,29.4c0.1,2,2.1,3,4.4,3c1.6,0,2.9-0.2,4.3-0.6L163,35c-1.6,0.7-3.5,1-5.6,1
	c-5.3,0-8.2-3-8.2-7.8c0-3.9,2.4-8.2,7.8-8.2c5,0,6.9,3.9,6.9,7.7c0,0.8-0.1,1.5-0.1,1.9h-9.9L153.7,29.4z M159.4,26.1
	c0-1.1-0.5-3.1-2.7-3.1c-2,0-2.9,1.9-2.9,3.1H159.4z M171.5,20.2v6.1h0.5l3.9-6.1h5.6l-5.6,6.6c1.9,0.3,3,2,3.9,4.2
	c0.6,1.2,1.1,3.1,1.9,4.5h-5c-0.4-0.7-0.8-1.8-1.4-3.4c-0.6-1.8-1.6-2.7-3.2-2.7h-0.4v6.1h-4.8V20.2H171.5L171.5,20.2z M195.9,20.2
	v3.7h-4.4v11.7h-4.8V23.9h-4.4v-3.7H195.9z M202.8,20.2v4.6c0.6-0.1,1.4-0.2,2.5-0.2c3.4,0,6.9,1.5,6.9,5.4c0,2-0.9,3.3-2.1,4.1
	c-1.9,1.3-4.6,1.7-6.9,1.7c-1.8,0-3.6-0.1-5.1-0.3V20.2H202.8z M202.8,32.5c0.4,0,0.9,0,1.4,0c1.6,0,3.3-0.6,3.3-2.4s-1.6-2.3-3-2.3
	c-0.8,0-1.3,0-1.6,0.1L202.8,32.5L202.8,32.5z M218.8,20.2v15.4H214V20.2C214,20.2,218.8,20.2,218.8,20.2z M94.1,50.3L93,53.5h-1.3
	l3.4-10.1h1.6l3.4,10.1h-1.4l-1.1-3.2H94.1L94.1,50.3z M97.4,49.3l-1-2.9c-0.2-0.7-0.3-1.3-0.5-1.8h-0.1c-0.2,0.6-0.3,1.2-0.5,1.8
	l-1,2.9H97.4z M101.9,48.6c0-1-0.1-1.7-0.1-2.3h1.2l0.1,1.3h0.1c0.6-0.9,1.4-1.4,2.6-1.4c1.8,0,3.1,1.5,3.1,3.7
	c0,2.6-1.6,3.9-3.3,3.9c-0.9,0-1.8-0.4-2.3-1.2h-0.1v4h-1.3L101.9,48.6L101.9,48.6z M103.2,50.6c0,0.2,0,0.4,0.1,0.5
	c0.3,0.9,1.1,1.5,2,1.5c1.4,0,2.2-1.2,2.2-2.8c0-1.5-0.8-2.7-2.2-2.7c-0.9,0-1.8,0.7-2,1.6c-0.1,0.2-0.1,0.3-0.1,0.5
	C103.2,49.3,103.2,50.6,103.2,50.6z M111.2,46.2l1.1,1.5c0.3,0.4,0.5,0.8,0.8,1.2h0.1l0.8-1.2l1-1.5h1.4l-2.4,3.5l2.6,3.8h-1.5
	l-1.1-1.7c-0.3-0.4-0.5-0.8-0.8-1.3h-0.1c-0.3,0.5-0.5,0.8-0.8,1.3l-1.1,1.7h-1.5l2.6-3.7l-2.4-3.5L111.2,46.2L111.2,46.2z
	 M119.1,46.2v3c0,1.2-0.1,1.9-0.1,2.9h0.1c0.4-0.9,0.7-1.4,1.2-2.3l2.3-3.8h1.6v7.3h-1.3v-3c0-1.2,0.1-1.8,0.1-3h-0.1
	c-0.5,1-0.8,1.5-1.2,2.3c-0.7,1.1-1.5,2.5-2.3,3.8h-1.6v-7.2H119.1z M131.3,46.2v1h-2.3v6.2h-1.3v-6.2h-2.3v-1H131.3z M133.4,50.1
	c0.1,1.8,1.1,2.5,2.5,2.5c0.9,0,1.6-0.2,2-0.3l0.3,1c-0.4,0.2-1.3,0.5-2.4,0.5c-2.3,0-3.6-1.5-3.6-3.7s1.3-3.9,3.4-3.9
	c2.4,0,3,2,3,3.4c0,0.3,0,0.5-0.1,0.6H133.4L133.4,50.1z M137.2,49.2c0-0.8-0.4-2.2-1.9-2.2c-1.4,0-1.9,1.2-2,2.2H137.2z
	 M141.8,46.2v3.2h0.3l2.7-3.2h1.6l-3.1,3.3c1.1,0.2,1.9,0.9,2.4,2.2c0.2,0.5,0.4,1.2,0.8,1.8H145c-0.2-0.3-0.4-0.9-0.7-1.5
	c-0.5-1.2-1.1-1.7-2.4-1.7h-0.3v3.2h-1.3v-7.2H141.8L141.8,46.2z M153.2,46.2v1h-2.3v6.2h-1.3v-6.2h-2.3v-1H153.2z M155.4,46.2
	l1.6,4.3c0.2,0.5,0.4,1,0.5,1.5h0.1c0.1-0.5,0.3-1,0.4-1.5l1.4-4.3h1.4l-2,5.2c-0.9,2.5-1.6,3.8-2.5,4.5c-0.6,0.5-1.3,0.8-1.6,0.8
	l-0.4-1.1c0.4-0.1,0.8-0.3,1.1-0.7c0.4-0.3,0.8-0.8,1.1-1.5c0.1-0.2,0.1-0.3,0.1-0.3s-0.1-0.2-0.1-0.3l-2.6-6.7L155.4,46.2
	L155.4,46.2z M162.4,48.6c0-1-0.1-1.7-0.1-2.3h1.1l0.1,1.3h0.1c0.5-0.9,1.4-1.4,2.6-1.4c1.8,0,3.1,1.5,3.1,3.7
	c0,2.6-1.6,3.9-3.3,3.9c-0.9,0-1.8-0.4-2.3-1.2h-0.1v4h-1.3V48.6z M163.7,50.6c0,0.2,0,0.4,0.1,0.5c0.3,0.9,1.1,1.5,2,1.5
	c1.4,0,2.2-1.2,2.2-2.8c0-1.5-0.8-2.7-2.1-2.7c-0.9,0-1.8,0.7-2,1.6c-0.1,0.2-0.1,0.3-0.1,0.5C163.7,49.3,163.7,50.6,163.7,50.6z
	 M172.5,46.2v2.9h3.4v-2.9h1.3v7.3h-1.3v-3.3h-3.4v3.3h-1.3v-7.3H172.5z M186.3,49.8c0,2.7-1.9,3.8-3.6,3.8c-1.9,0-3.5-1.5-3.5-3.8
	c0-2.4,1.6-3.8,3.6-3.8C184.9,46.1,186.3,47.6,186.3,49.8z M180.6,49.9c0,1.6,0.9,2.8,2.2,2.8c1.3,0,2.2-1.2,2.2-2.8
	c0-1.3-0.6-2.8-2.1-2.8C181.2,47.1,180.6,48.5,180.6,49.9z M189,50.1c0.1,1.8,1.1,2.5,2.5,2.5c0.9,0,1.6-0.2,2-0.3l0.3,1
	c-0.4,0.2-1.3,0.5-2.4,0.5c-2.3,0-3.6-1.5-3.6-3.7s1.3-3.9,3.4-3.9c2.4,0,3,2,3,3.4c0,0.3,0,0.5-0.1,0.6H189L189,50.1z M192.9,49.2
	c0-0.8-0.4-2.2-1.9-2.2c-1.4,0-1.9,1.2-2,2.2H192.9z M97.9,58.8c-0.3,0.2-1.1,0.3-1.5,0.3c-1.2,0.2-2.1,0.5-2.6,1.3
	c-0.4,0.7-0.7,1.6-0.8,2.4H93c0.5-1,1.5-1.7,2.6-1.7c1.8,0,3.1,1.3,3.1,3.6s-1.3,3.8-3.3,3.8c-2.6,0-3.4-2.4-3.4-4.8
	c0-1.7,0.3-3,1.1-4c0.7-1,1.7-1.5,3.1-1.7c0.6-0.1,1.3-0.2,1.8-0.4L97.9,58.8L97.9,58.8z M95.3,62.2c-0.8,0-1.3,0.4-1.7,1
	c-0.3,0.5-0.3,1-0.3,1.5c0,1.2,0.6,2.9,2.1,2.9c1.4,0,2-1.4,2-2.8C97.3,63.8,96.8,62.2,95.3,62.2z M101.9,61.2v3h1.3
	c0.2-1.9,1.4-3.2,3.2-3.2c1.9,0,3.2,1.5,3.2,3.7c0,2.3-1.4,3.8-3.3,3.8c-1.8,0-3-1.3-3.2-3.3H102v3.2h-1.3v-7.3
	C100.6,61.2,101.9,61.2,101.9,61.2z M108.2,64.8c0-1.4-0.6-2.8-1.9-2.8c-1.3,0-1.9,1.3-1.9,2.9c0,1.4,0.7,2.7,1.9,2.7
	C107.6,67.7,108.2,66.2,108.2,64.8z M111.5,63.6c0-1-0.1-1.7-0.1-2.3h1.2l0.1,1.3h0.1c0.6-0.9,1.4-1.4,2.6-1.4
	c1.8,0,3.1,1.5,3.1,3.7c0,2.6-1.6,3.9-3.3,3.9c-0.9,0-1.8-0.4-2.3-1.2h-0.1v3.9h-1.3L111.5,63.6L111.5,63.6z M112.9,65.6
	c0,0.2,0,0.4,0.1,0.5c0.3,0.9,1.1,1.6,2,1.6c1.4,0,2.2-1.2,2.2-2.8c0-1.5-0.8-2.7-2.2-2.7c-0.9,0-1.8,0.7-2,1.6
	c-0.1,0.2-0.1,0.3-0.1,0.5V65.6z M127,64.8c0,2.7-1.8,3.8-3.6,3.8c-1.9,0-3.5-1.4-3.5-3.8c0-2.4,1.6-3.8,3.6-3.8
	C125.6,61.1,127,62.6,127,64.8z M121.2,64.9c0,1.6,0.9,2.8,2.2,2.8c1.3,0,2.2-1.2,2.2-2.8c0-1.3-0.6-2.8-2.2-2.8
	C121.9,62.1,121.2,63.5,121.2,64.9L121.2,64.9z M33.2,3.2L1.7,21.4v36.4l13.8,7.9V45l5.4,3.1v20.8L33.2,76l31.5-18.2V21.4
	C64.7,21.4,33.2,3.2,33.2,3.2z M45.2,31l-10.5,6V24.9L45.2,31z M36.2,22.3l10.5-6.1v12.1L36.2,22.3z M46.7,33.6v12.1l-10.5-6
	C36.2,39.7,46.7,33.6,46.7,33.6z M49.7,33.6l10.5,6l-10.5,6V33.6z M49.7,16.2l10.5,6.1l-10.5,6C49.7,28.3,49.7,16.2,49.7,16.2z
	 M34.7,19.7V7.6l10.5,6.1C45.2,13.6,34.7,19.7,34.7,19.7z M31.7,21.4l-13.5,7.8l-12-7L31.7,7.5V21.4z M31.7,24.9V37l-10.5-6
	L31.7,24.9z M45.2,48.3l-10.5,6V42.2L45.2,48.3z M34.7,57.8L48.2,50l12,7L34.7,71.7C34.7,71.7,34.7,57.8,34.7,57.8z M51.2,48.3
	l10.5-6v12.1L51.2,48.3z M51.2,31l10.5-6v12.1C61.7,37.1,51.2,31,51.2,31z M12.5,39.8v20.8l-7.8-4.5V24.9l27,15.6v31.2l-7.8-4.5
	V46.4L12.5,39.8z"/>
</svg>
